<svg width="40" height="40" viewBox="0 0 40 40" fill="none" xmlns="http://www.w3.org/2000/svg">
<g clip-path="url(#clip0_149_58)">
<path d="M39.3465 16.4552L24.2527 1.36924L23.241 0.35752C23.0105 0.128523 22.6987 0 22.3738 0C22.0489 0 21.7371 0.128523 21.5066 0.35752L5.40116 16.4552C5.16496 16.6905 4.97828 16.9707 4.85215 17.2793C4.72602 17.5879 4.66299 17.9187 4.66679 18.2521C4.68241 19.6271 5.82694 20.7247 7.20194 20.7247H8.8621V33.4474H35.8855V20.7247H37.5808C38.2488 20.7247 38.8777 20.463 39.3504 19.9903C39.5831 19.7583 39.7675 19.4825 39.8929 19.1788C40.0183 18.875 40.0822 18.5494 40.0808 18.2208C40.0808 17.5567 39.8191 16.9278 39.3465 16.4552V16.4552ZM24.5613 30.6349H20.1863V22.6661H24.5613V30.6349ZM33.073 17.9122V30.6349H27.0613V21.7286C27.0613 20.8653 26.3621 20.1661 25.4988 20.1661H19.2488C18.3855 20.1661 17.6863 20.8653 17.6863 21.7286V30.6349H11.6746V17.9122H7.9246L22.3777 3.4708L23.2801 4.37315L36.8269 17.9122H33.073Z" fill="black" fill-opacity="0.8"/>
</g>
<defs>
<clipPath id="clip0_149_58">
<rect width="40" height="40" fill="white"/>
</clipPath>
</defs>
</svg>
