<svg width="40" height="40" viewBox="0 0 40 40" fill="none" xmlns="http://www.w3.org/2000/svg">
<path d="M7.5 37.5H22.5C23.1628 37.4993 23.7983 37.2357 24.267 36.767C24.7357 36.2983 24.9993 35.6628 25 35V31.25H22.5V35H7.5V5H22.5V8.75H25V5C24.9993 4.33716 24.7357 3.70166 24.267 3.23296C23.7983 2.76427 23.1628 2.50066 22.5 2.5H7.5C6.83716 2.50066 6.20166 2.76427 5.73296 3.23296C5.26427 3.70166 5.00066 4.33716 5 5V35C5.00066 35.6628 5.26427 36.2983 5.73296 36.767C6.20166 37.2357 6.83716 37.4993 7.5 37.5Z" fill="black"/>
<path d="M25.7325 25.7325L30.215 21.25H12.5V18.75H30.215L25.7325 14.2675L27.5 12.5L35 20L27.5 27.5L25.7325 25.7325Z" fill="black"/>
</svg>
