<svg width="30" height="30" viewBox="0 0 30 30" fill="none" xmlns="http://www.w3.org/2000/svg">
<path d="M22.5 2.8125H7.5C7.00272 2.8125 6.52581 3.01004 6.17417 3.36167C5.82254 3.71331 5.625 4.19022 5.625 4.6875V25.3125C5.625 25.8098 5.82254 26.2867 6.17417 26.6383C6.52581 26.99 7.00272 27.1875 7.5 27.1875H22.5C22.9973 27.1875 23.4742 26.99 23.8258 26.6383C24.1775 26.2867 24.375 25.8098 24.375 25.3125V4.6875C24.375 4.19022 24.1775 3.71331 23.8258 3.36167C23.4742 3.01004 22.9973 2.8125 22.5 2.8125ZM22.5 4.6875V10.3125H7.5V4.6875H22.5ZM7.5 17.8125V12.1875H22.5V17.8125H7.5ZM7.5 25.3125V19.6875H22.5V25.3125H7.5Z" fill="black"/>
<path d="M10.3125 8.4375C10.8303 8.4375 11.25 8.01777 11.25 7.5C11.25 6.98223 10.8303 6.5625 10.3125 6.5625C9.79473 6.5625 9.375 6.98223 9.375 7.5C9.375 8.01777 9.79473 8.4375 10.3125 8.4375Z" fill="black"/>
<path d="M10.3125 15.9375C10.8303 15.9375 11.25 15.5178 11.25 15C11.25 14.4822 10.8303 14.0625 10.3125 14.0625C9.79473 14.0625 9.375 14.4822 9.375 15C9.375 15.5178 9.79473 15.9375 10.3125 15.9375Z" fill="black"/>
<path d="M10.3125 23.4375C10.8303 23.4375 11.25 23.0178 11.25 22.5C11.25 21.9822 10.8303 21.5625 10.3125 21.5625C9.79473 21.5625 9.375 21.9822 9.375 22.5C9.375 23.0178 9.79473 23.4375 10.3125 23.4375Z" fill="black"/>
</svg>
