<svg width="44" height="42" viewBox="0 0 44 42" fill="none" xmlns="http://www.w3.org/2000/svg">
<path d="M44 20.979C44 9.3975 34.144 0 22 0C9.856 0 0 9.3975 0 20.979C0 27.3577 3.036 33.1065 7.788 36.9652C7.832 37.0072 7.876 37.0073 7.876 37.0493C8.272 37.3433 8.668 37.6372 9.108 37.9312C9.328 38.0573 9.504 38.2226 9.724 38.3906C13.3597 40.7436 17.6515 42.0009 22.044 42C26.4365 42.0009 30.7283 40.7436 34.364 38.3906C34.584 38.2646 34.76 38.0993 34.98 37.9706C35.376 37.6792 35.816 37.3853 36.212 37.0913C36.256 37.0493 36.3 37.0492 36.3 37.0072C40.964 33.1039 44 27.3577 44 20.979ZM22 39.3566C17.864 39.3566 14.08 38.0966 10.956 35.9992C11 35.6632 11.088 35.3299 11.176 34.9939C11.4382 34.0833 11.8227 33.2089 12.32 32.3925C12.804 31.5945 13.376 30.8805 14.08 30.2505C14.74 29.6205 15.532 29.0351 16.324 28.5731C17.16 28.1111 18.04 27.7751 19.008 27.5231C19.9835 27.2721 20.9897 27.1459 22 27.1478C24.9993 27.1275 27.8884 28.2257 30.052 30.2085C31.064 31.1745 31.856 32.3085 32.428 33.6079C32.736 34.3639 32.956 35.1619 33.088 35.9992C29.8407 38.1784 25.9694 39.3506 22 39.3566ZM15.268 19.9316C14.8803 19.0843 14.6854 18.1682 14.696 17.2436C14.696 16.3222 14.872 15.3982 15.268 14.5583C15.664 13.7183 16.192 12.9649 16.852 12.3349C17.512 11.7049 18.304 11.2035 19.184 10.8255C20.064 10.4475 21.032 10.2795 22 10.2795C23.012 10.2795 23.936 10.4475 24.816 10.8255C25.696 11.2035 26.488 11.7075 27.148 12.3349C27.808 12.9649 28.336 13.7209 28.732 14.5583C29.128 15.3982 29.304 16.3222 29.304 17.2436C29.304 18.2096 29.128 19.0916 28.732 19.929C28.3498 20.7566 27.8131 21.5109 27.148 22.155C26.473 22.7889 25.6828 23.3004 24.816 23.6644C22.9978 24.3776 20.9582 24.3776 19.14 23.6644C18.2732 23.3004 17.483 22.7889 16.808 22.155C16.142 21.5202 15.6181 20.7629 15.268 19.929V19.9316ZM35.684 33.8599C35.684 33.7759 35.64 33.7339 35.64 33.6499C35.2073 32.3358 34.5694 31.0916 33.748 29.9591C32.9258 28.8182 31.9154 27.8121 30.756 26.9797C29.8706 26.3439 28.9108 25.8083 27.896 25.3838C28.3577 25.093 28.7854 24.756 29.172 24.3784C29.828 23.7602 30.4041 23.0693 30.888 22.3204C31.8625 20.7921 32.3657 19.0325 32.34 17.2436C32.3536 15.9194 32.0841 14.6063 31.548 13.3849C31.0187 12.2079 30.2568 11.1393 29.304 10.2375C28.3526 9.34508 27.2329 8.63255 26.004 8.1375C24.7222 7.62666 23.3449 7.37033 21.956 7.38412C20.5669 7.37116 19.1896 7.62838 17.908 8.14013C16.6684 8.63412 15.5461 9.36176 14.608 10.2795C13.6731 11.1867 12.9266 12.2546 12.408 13.4269C11.8719 14.6483 11.6024 15.9614 11.616 17.2856C11.616 18.2096 11.748 19.0916 12.012 19.929C12.276 20.811 12.628 21.609 13.112 22.3624C13.552 23.1184 14.168 23.7904 14.828 24.4204C15.224 24.7984 15.664 25.1318 16.148 25.4257C15.13 25.8617 14.17 26.4115 13.288 27.0638C12.144 27.9038 11.132 28.9091 10.296 30.0011C9.46621 31.1289 8.82772 32.3744 8.404 33.6919C8.36 33.7759 8.36 33.8599 8.36 33.9019C4.884 30.5445 2.728 26.0138 2.728 20.979C2.728 10.8675 11.396 2.60138 22 2.60138C32.604 2.60138 41.272 10.8675 41.272 20.979C41.2662 25.8089 39.2571 30.4401 35.684 33.8599Z" fill="black"/>
</svg>
