<svg width="26" height="29" viewBox="0 0 26 29" fill="none" xmlns="http://www.w3.org/2000/svg">
<path d="M8.3125 10.3125C8.56114 10.3125 8.7996 10.4113 8.97541 10.5871C9.15123 10.7629 9.25 11.0014 9.25 11.25V22.5C9.25 22.7486 9.15123 22.9871 8.97541 23.1629C8.7996 23.3387 8.56114 23.4375 8.3125 23.4375C8.06386 23.4375 7.8254 23.3387 7.64959 23.1629C7.47377 22.9871 7.375 22.7486 7.375 22.5V11.25C7.375 11.0014 7.47377 10.7629 7.64959 10.5871C7.8254 10.4113 8.06386 10.3125 8.3125 10.3125ZM13 10.3125C13.2486 10.3125 13.4871 10.4113 13.6629 10.5871C13.8387 10.7629 13.9375 11.0014 13.9375 11.25V22.5C13.9375 22.7486 13.8387 22.9871 13.6629 23.1629C13.4871 23.3387 13.2486 23.4375 13 23.4375C12.7514 23.4375 12.5129 23.3387 12.3371 23.1629C12.1613 22.9871 12.0625 22.7486 12.0625 22.5V11.25C12.0625 11.0014 12.1613 10.7629 12.3371 10.5871C12.5129 10.4113 12.7514 10.3125 13 10.3125ZM18.625 11.25C18.625 11.0014 18.5262 10.7629 18.3504 10.5871C18.1746 10.4113 17.9361 10.3125 17.6875 10.3125C17.4389 10.3125 17.2004 10.4113 17.0246 10.5871C16.8488 10.7629 16.75 11.0014 16.75 11.25V22.5C16.75 22.7486 16.8488 22.9871 17.0246 23.1629C17.2004 23.3387 17.4389 23.4375 17.6875 23.4375C17.9361 23.4375 18.1746 23.3387 18.3504 23.1629C18.5262 22.9871 18.625 22.7486 18.625 22.5V11.25Z" fill="black"/>
<path fill-rule="evenodd" clip-rule="evenodd" d="M25.1875 5.625C25.1875 6.12228 24.99 6.59919 24.6383 6.95083C24.2867 7.30246 23.8098 7.5 23.3125 7.5H22.375V24.375C22.375 25.3696 21.9799 26.3234 21.2766 27.0266C20.5734 27.7299 19.6196 28.125 18.625 28.125H7.375C6.38044 28.125 5.42661 27.7299 4.72335 27.0266C4.02009 26.3234 3.625 25.3696 3.625 24.375V7.5H2.6875C2.19022 7.5 1.71331 7.30246 1.36167 6.95083C1.01004 6.59919 0.8125 6.12228 0.8125 5.625V3.75C0.8125 3.25272 1.01004 2.77581 1.36167 2.42417C1.71331 2.07254 2.19022 1.875 2.6875 1.875H9.25C9.25 1.37772 9.44754 0.900806 9.79918 0.549175C10.1508 0.197544 10.6277 0 11.125 0L14.875 0C15.3723 0 15.8492 0.197544 16.2008 0.549175C16.5525 0.900806 16.75 1.37772 16.75 1.875H23.3125C23.8098 1.875 24.2867 2.07254 24.6383 2.42417C24.99 2.77581 25.1875 3.25272 25.1875 3.75V5.625ZM5.72125 7.5L5.5 7.61063V24.375C5.5 24.8723 5.69754 25.3492 6.04918 25.7008C6.40081 26.0525 6.87772 26.25 7.375 26.25H18.625C19.1223 26.25 19.5992 26.0525 19.9508 25.7008C20.3025 25.3492 20.5 24.8723 20.5 24.375V7.61063L20.2787 7.5H5.72125ZM2.6875 5.625V3.75H23.3125V5.625H2.6875Z" fill="black"/>
</svg>
