<svg width="24" height="24" viewBox="0 0 24 24" fill="none" xmlns="http://www.w3.org/2000/svg">
<path d="M16.5925 4.76L19.24 7.40625L16.5925 4.76ZM18.295 2.42875L11.1363 9.5875C10.7664 9.95687 10.5141 10.4275 10.4113 10.94L9.75 14.25L13.06 13.5875C13.5725 13.485 14.0425 13.2337 14.4125 12.8637L21.5713 5.705C21.7864 5.48988 21.957 5.23449 22.0734 4.95342C22.1899 4.67235 22.2498 4.3711 22.2498 4.06687C22.2498 3.76264 22.1899 3.46139 22.0734 3.18033C21.957 2.89926 21.7864 2.64387 21.5713 2.42875C21.3561 2.21363 21.1007 2.04298 20.8197 1.92656C20.5386 1.81014 20.2374 1.75021 19.9331 1.75021C19.6289 1.75021 19.3276 1.81014 19.0466 1.92656C18.7655 2.04298 18.5101 2.21363 18.295 2.42875V2.42875Z" stroke="black" stroke-width="2" stroke-linecap="round" stroke-linejoin="round"/>
<path d="M19.75 16.75V20.5C19.75 21.163 19.4866 21.7989 19.0178 22.2678C18.5489 22.7366 17.913 23 17.25 23H3.5C2.83696 23 2.20107 22.7366 1.73223 22.2678C1.26339 21.7989 1 21.163 1 20.5V6.75C1 6.08696 1.26339 5.45107 1.73223 4.98223C2.20107 4.51339 2.83696 4.25 3.5 4.25H7.25" stroke="black" stroke-width="2" stroke-linecap="round" stroke-linejoin="round"/>
</svg>
